<svg xmlns="http://www.w3.org/2000/svg" viewBox="0 0 1200 800">
  <defs>
    <linearGradient id="g" x1="0" y1="0" x2="1" y2="1">
      <stop offset="0%" stop-color="#0f1017"/>
      <stop offset="100%" stop-color="#1b212b"/>
    </linearGradient>
  </defs>
  <rect width="1200" height="800" fill="url(#g)"/>
  <rect x="80" y="80" width="1040" height="640" rx="48" fill="#11151d"/>
  <rect x="120" y="120" width="760" height="38" rx="19" fill="#ffffff" opacity="0.12"/>
  <rect x="120" y="190" width="520" height="24" rx="12" fill="#ffffff" opacity="0.08"/>
  <rect x="120" y="252" width="920" height="420" rx="34" fill="#0d1018"/>
  <rect x="160" y="310" width="880" height="96" rx="26" fill="#ffffff" opacity="0.08"/>
  <rect x="200" y="348" width="140" height="22" rx="11" fill="#ffffff" opacity="0.06"/>
  <rect x="200" y="388" width="620" height="18" rx="9" fill="#ffffff" opacity="0.06"/>
  <rect x="200" y="432" width="280" height="18" rx="9" fill="#ffffff" opacity="0.06"/>
  <rect x="200" y="476" width="520" height="16" rx="8" fill="#ffffff" opacity="0.04"/>
  <rect x="200" y="520" width="520" height="16" rx="8" fill="#ffffff" opacity="0.04"/>
  <rect x="200" y="564" width="520" height="16" rx="8" fill="#ffffff" opacity="0.04"/>
  <path d="M820 372l24 24 48-48" fill="none" stroke="#ffffff" stroke-width="24" stroke-linecap="round" stroke-linejoin="round" opacity="0.14"/>
  <text x="120" y="740" font-family="Inter, sans-serif" font-size="44" fill="#ffffff" opacity="0.9">Task Manager</text>
</svg>