<svg xmlns="http://www.w3.org/2000/svg" viewBox="0 0 1200 800">
  <defs>
    <linearGradient id="g" x1="0" y1="0" x2="1" y2="1">
      <stop offset="0%" stop-color="#0f1016"/>
      <stop offset="100%" stop-color="#1a212a"/>
    </linearGradient>
  </defs>
  <rect width="1200" height="800" fill="url(#g)"/>
  <rect x="80" y="80" width="1040" height="640" rx="48" fill="#11151d"/>
  <rect x="120" y="120" width="760" height="40" rx="20" fill="#ffffff" opacity="0.12"/>
  <rect x="120" y="192" width="560" height="24" rx="12" fill="#ffffff" opacity="0.08"/>
  <rect x="120" y="252" width="920" height="420" rx="34" fill="#0d1018"/>
  <rect x="176" y="304" width="880" height="120" rx="28" fill="#ffffff" opacity="0.08"/>
  <rect x="220" y="346" width="640" height="18" rx="9" fill="#ffffff" opacity="0.06"/>
  <rect x="220" y="390" width="340" height="18" rx="9" fill="#ffffff" opacity="0.06"/>
  <rect x="220" y="434" width="760" height="20" rx="10" fill="#ffffff" opacity="0.06"/>
  <rect x="220" y="496" width="760" height="20" rx="10" fill="#ffffff" opacity="0.06"/>
  <rect x="220" y="558" width="760" height="20" rx="10" fill="#ffffff" opacity="0.06"/>
  <rect x="220" y="620" width="420" height="16" rx="8" fill="#ffffff" opacity="0.04"/>
  <text x="120" y="740" font-family="Inter, sans-serif" font-size="44" fill="#ffffff" opacity="0.9">Capstone App</text>
</svg>