<svg xmlns="http://www.w3.org/2000/svg" viewBox="0 0 1200 800">
  <defs>
    <linearGradient id="g" x1="0" y1="0" x2="1" y2="1">
      <stop offset="0%" stop-color="#101118"/>
      <stop offset="100%" stop-color="#1b2029"/>
    </linearGradient>
  </defs>
  <rect width="1200" height="800" fill="url(#g)"/>
  <rect x="80" y="80" width="1040" height="640" rx="48" fill="#11151d"/>
  <rect x="120" y="120" width="760" height="46" rx="23" fill="#ffffff" opacity="0.14"/>
  <rect x="120" y="192" width="520" height="30" rx="15" fill="#ffffff" opacity="0.08"/>
  <rect x="120" y="260" width="920" height="420" rx="32" fill="#0f1218"/>
  <rect x="160" y="310" width="320" height="32" rx="16" fill="#ffffff" opacity="0.08"/>
  <rect x="160" y="362" width="540" height="20" rx="10" fill="#ffffff" opacity="0.06"/>
  <rect x="160" y="410" width="580" height="20" rx="10" fill="#ffffff" opacity="0.06"/>
  <rect x="160" y="458" width="260" height="20" rx="10" fill="#ffffff" opacity="0.06"/>
  <rect x="160" y="506" width="760" height="16" rx="8" fill="#ffffff" opacity="0.04"/>
  <circle cx="960" cy="420" r="92" fill="#ffffff" opacity="0.06"/>
  <path d="M920 370h80M920 420h50M920 470h80" stroke="#ffffff" stroke-width="18" stroke-linecap="round" opacity="0.12"/>
  <text x="120" y="740" font-family="Inter, sans-serif" font-size="44" fill="#ffffff" opacity="0.9">Portfolio Website</text>
</svg>