<svg xmlns="http://www.w3.org/2000/svg" viewBox="0 0 1200 800">
  <defs>
    <linearGradient id="g" x1="0" y1="0" x2="1" y2="1">
      <stop offset="0%" stop-color="#0f1014"/>
      <stop offset="100%" stop-color="#1c222b"/>
    </linearGradient>
  </defs>
  <rect width="1200" height="800" fill="url(#g)"/>
  <rect x="80" y="80" width="1040" height="640" rx="48" fill="#11151f"/>
  <rect x="120" y="120" width="760" height="40" rx="20" fill="#ffffff" opacity="0.12"/>
  <rect x="120" y="192" width="640" height="24" rx="12" fill="#ffffff" opacity="0.08"/>
  <rect x="120" y="252" width="920" height="420" rx="34" fill="#0d1017"/>
  <rect x="188" y="314" width="204" height="412" rx="30" fill="#ffffff" opacity="0.08"/>
  <rect x="212" y="350" width="160" height="24" rx="12" fill="#ffffff" opacity="0.08"/>
  <rect x="212" y="394" width="160" height="20" rx="10" fill="#ffffff" opacity="0.06"/>
  <rect x="212" y="440" width="160" height="20" rx="10" fill="#ffffff" opacity="0.06"/>
  <rect x="212" y="482" width="160" height="20" rx="10" fill="#ffffff" opacity="0.06"/>
  <rect x="448" y="332" width="540" height="116" rx="28" fill="#ffffff" opacity="0.04"/>
  <rect x="448" y="470" width="260" height="24" rx="12" fill="#ffffff" opacity="0.06"/>
  <rect x="448" y="518" width="540" height="20" rx="10" fill="#ffffff" opacity="0.06"/>
  <rect x="448" y="560" width="440" height="20" rx="10" fill="#ffffff" opacity="0.06"/>
  <text x="120" y="740" font-family="Inter, sans-serif" font-size="44" fill="#ffffff" opacity="0.9">Mobile Dashboard</text>
</svg>