<svg xmlns="http://www.w3.org/2000/svg" viewBox="0 0 1200 800">
  <defs>
    <linearGradient id="g" x1="0" y1="0" x2="1" y2="1">
      <stop offset="0%" stop-color="#0f1015"/>
      <stop offset="100%" stop-color="#19202a"/>
    </linearGradient>
  </defs>
  <rect width="1200" height="800" fill="url(#g)"/>
  <rect x="80" y="80" width="1040" height="640" rx="48" fill="#11141b"/>
  <rect x="120" y="120" width="760" height="36" rx="18" fill="#ffffff" opacity="0.12"/>
  <rect x="120" y="182" width="560" height="26" rx="13" fill="#ffffff" opacity="0.08"/>
  <rect x="120" y="246" width="920" height="420" rx="34" fill="#0d1018"/>
  <rect x="160" y="296" width="220" height="20" rx="10" fill="#ffffff" opacity="0.08"/>
  <rect x="160" y="338" width="420" height="20" rx="10" fill="#ffffff" opacity="0.06"/>
  <rect x="160" y="380" width="640" height="18" rx="9" fill="#ffffff" opacity="0.06"/>
  <rect x="160" y="432" width="180" height="18" rx="9" fill="#ffffff" opacity="0.06"/>
  <rect x="160" y="484" width="520" height="18" rx="9" fill="#ffffff" opacity="0.06"/>
  <rect x="160" y="536" width="320" height="18" rx="9" fill="#ffffff" opacity="0.06"/>
  <path d="M760 320v240M820 320v140M880 320v180" stroke="#ffffff" stroke-width="24" stroke-linecap="round" opacity="0.14"/>
  <circle cx="860" cy="621" r="22" fill="#ffffff" opacity="0.2"/>
  <circle cx="860" cy="551" r="22" fill="#ffffff" opacity="0.2"/>
  <circle cx="860" cy="491" r="22" fill="#ffffff" opacity="0.2"/>
  <text x="120" y="740" font-family="Inter, sans-serif" font-size="44" fill="#ffffff" opacity="0.9">Health System</text>
</svg>